<?xml version="1.0" encoding="UTF-8" standalone="no"?>
<svg
   width="16"
   height="16"
   fill="currentColor"
   class="bi bi-instagram"
   viewBox="0 0 16 16"
   version="1.1"
   id="svg1"
   sodipodi:docname="instagram.svg"
   inkscape:version="1.4 (86a8ad7, 2024-10-11)"
   xmlns:inkscape="http://www.inkscape.org/namespaces/inkscape"
   xmlns:sodipodi="http://sodipodi.sourceforge.net/DTD/sodipodi-0.dtd"
   xmlns="http://www.w3.org/2000/svg"
   xmlns:svg="http://www.w3.org/2000/svg">
  <defs
     id="defs1" />
  <sodipodi:namedview
     id="namedview1"
     pagecolor="#505050"
     bordercolor="#ffffff"
     borderopacity="1"
     inkscape:showpageshadow="0"
     inkscape:pageopacity="0"
     inkscape:pagecheckerboard="1"
     inkscape:deskcolor="#505050"
     inkscape:zoom="52.3125"
     inkscape:cx="8.0095579"
     inkscape:cy="7.9808841"
     inkscape:window-width="1920"
     inkscape:window-height="1017"
     inkscape:window-x="-8"
     inkscape:window-y="-8"
     inkscape:window-maximized="1"
     inkscape:current-layer="svg1" />
  <path
     id="path3"
     style="display:inline;fill:#aa4a44;fill-opacity:1"
     d="M 5.0585938 0.017578125 C 0.94211153 0.093008534 -0.1286169 2.7405961 0.01953125 5.9257812 C 0.17245837 9.2137144 -0.55349508 11.545522 0.66992188 13.820312 C 1.8933388 16.095103 4.071512 15.962183 8.6210938 16.019531 C 13.170675 16.076879 13.897553 15.407549 15.025391 14.298828 C 16.153228 13.190106 16.057761 9.9584289 16.019531 7.4160156 C 15.981299 4.8736022 16.019205 4.109641 15.464844 2.5039062 C 14.910483 0.89817148 12.693359 0.19140625 12.693359 0.19140625 C 11.986071 0.00024735 9.9207993 0.1151107 5.4667969 0.01953125 C 5.3276093 0.016544392 5.1913835 0.015144886 5.0585938 0.017578125 z M 6.1523438 1.3867188 C 6.3907697 1.384628 6.6399366 1.3873628 6.9003906 1.3945312 C 8.9840226 1.4518792 11.640704 1.5488281 12.003906 1.5488281 C 12.367108 1.5488281 13.285943 2.0073529 13.591797 2.2558594 C 13.591797 2.2558594 14.54729 3.1535712 14.566406 5.0078125 C 14.585526 6.8620538 14.527344 11.412109 14.527344 11.412109 C 14.527344 11.412109 14.641953 14.54729 10.837891 14.566406 C 7.0338282 14.585526 3.881116 14.623677 3.1738281 14.203125 C 2.4665401 13.782576 1.4718254 13.286015 1.4335938 10.628906 C 1.3953617 7.9717975 1.5097656 4.5683594 1.5097656 4.5683594 C 1.5097656 4.5683594 1.5094646 2.9053843 2.484375 2.2363281 C 3.3374194 1.650904 4.4833623 1.4013543 6.1523438 1.3867188 z " />
  <ellipse
     style="fill:#aa4a44;fill-opacity:1"
     id="path4"
     cx="12.291517"
     cy="3.7084827"
     rx="0.95579451"
     ry="0.89844686" />
  <ellipse
     style="display:inline;opacity:1;fill:none;fill-opacity:1;stroke:#aa4a44;stroke-width:1.492;stroke-dasharray:none;stroke-opacity:1"
     id="path5"
     cx="7.952209"
     cy="8.0764637"
     rx="3.325176"
     ry="3.4334767" />
</svg>
