<?xml version="1.0" encoding="UTF-8" standalone="no"?>
<svg
   width="16"
   height="16"
   fill="currentColor"
   class="bi bi-twitter"
   viewBox="0 0 16 16"
   version="1.1"
   id="svg1"
   sodipodi:docname="twitter.svg"
   inkscape:version="1.4 (86a8ad7, 2024-10-11)"
   xmlns:inkscape="http://www.inkscape.org/namespaces/inkscape"
   xmlns:sodipodi="http://sodipodi.sourceforge.net/DTD/sodipodi-0.dtd"
   xmlns="http://www.w3.org/2000/svg"
   xmlns:svg="http://www.w3.org/2000/svg">
  <defs
     id="defs1" />
  <sodipodi:namedview
     id="namedview1"
     pagecolor="#505050"
     bordercolor="#ffffff"
     borderopacity="1"
     inkscape:showpageshadow="0"
     inkscape:pageopacity="0"
     inkscape:pagecheckerboard="1"
     inkscape:deskcolor="#505050"
     inkscape:zoom="90.509668"
     inkscape:cx="7.1373591"
     inkscape:cy="5.3530193"
     inkscape:window-width="1920"
     inkscape:window-height="1017"
     inkscape:window-x="-8"
     inkscape:window-y="-8"
     inkscape:window-maximized="1"
     inkscape:current-layer="svg1" />
  <path
     d="m 5.026,15 c 6.038,0 9.341,-5.003 9.341,-9.334 Q 14.369,5.455 14.361,5.244 A 6.7,6.7 0 0 0 16,3.542 6.7,6.7 0 0 1 14.111,4.06 3.3,3.3 0 0 0 15.558,2.243 6.5,6.5 0 0 1 13.471,3.036 3.286,3.286 0 0 0 7.875,6.03 9.32,9.32 0 0 1 1.108,2.601 3.29,3.29 0 0 0 2.126,6.983 3.3,3.3 0 0 1 0.64,6.575 V 6.62 A 3.29,3.29 0 0 0 3.272,9.838 3.2,3.2 0 0 1 2.407,9.953 3,3 0 0 1 1.793,9.896 3.28,3.28 0 0 0 4.86,12.173 6.6,6.6 0 0 1 0.78,13.58 6,6 0 0 1 0,13.535 9.34,9.34 0 0 0 5.026,15"
     id="path1"
     style="display:none;fill:#0000ff" />
  <ellipse
     style="fill:#aa4a44;fill-opacity:1;stroke:none;stroke-width:2.07422"
     id="path2"
     ry="3.1636798"
     rx="3.3357227"
     cy="5.1517324"
     cx="11.115891" />
  <path
     id="path3"
     style="fill:#aa4a44;fill-opacity:1;stroke:none;stroke-width:1.492"
     d="m 15.871094,1.5703125 c 0.0016,0.0062 0.0037,0.011644 0.0059,0.017578 -0.0014,-0.00618 -0.0043,-0.011659 -0.0059,-0.017578 z M 15.611328,2.140625 c 0.0034,0.00291 0.0061,0.00715 0.0098,0.00977 -0.0035,-0.00358 -0.006,-0.00646 -0.0098,-0.00977 z m -0.07617,0.1132813 c -2.94e-4,0.00159 3.14e-4,0.00227 0,0.00391 l 0.002,-0.00195 z m 0,0.00391 c -0.598952,0.4737135 -2.201172,0.7929688 -2.201172,0.7929688 0,-1e-7 -0.762413,2.2991786 0.710938,1.1367187 1.212651,-0.9567827 1.445786,-1.6972094 1.490232,-1.9296913 z" />
  <path
     id="path3-8"
     style="fill:#aa4a44;fill-opacity:1;stroke:none;stroke-width:1.38673"
     d="m 16.353431,2.9574983 c 6.89e-4,0.00591 0.0022,0.011197 0.0035,0.016927 -5.92e-4,-0.00588 -0.0026,-0.011258 -0.0035,-0.016927 z m -0.303428,0.498412 c 0.0028,0.00308 0.0048,0.00731 0.0078,0.010134 -0.0029,-0.00372 -0.0048,-0.00665 -0.0078,-0.010134 z m -0.08287,0.09624 c -4.52e-4,0.00145 3.3e-5,0.00213 -4.42e-4,0.00362 l 0.002,-0.00158 z m -4.42e-4,0.00362 c -0.604598,0.3709413 -2.114851,0.4862869 -2.114851,0.4862869 0,-2e-7 -0.961189,2.0413146 0.525734,1.1314445 1.223823,-0.748886 1.521963,-1.4076625 1.589117,-1.6177376 z" />
  <path
     style="fill:#aa4a44;fill-opacity:1;stroke:none;stroke-width:1.492"
     d="m 7.9770484,6.0325047 c 0,0 -2.4859223,-0.1325825 -3.9111844,-1.0275145 C 2.6406019,4.1100582 1.2926796,3.1046407 1.1490485,2.5743106 1.0054175,2.0439805 -0.11048543,5.734194 2.1434174,6.993728 4.3973203,8.253262 4.0548154,6.5849319 4.0548154,6.5849319 L 2.4417281,7.0710678 c 0,0 -1.55784462,-0.2320194 -1.82300967,-0.4750874 C 0.35355339,6.3529125 1.0606602,9.3802134 3.2703689,9.8773978 5.4800775,10.374582 3.9001358,9.1150483 3.9001358,9.1150483 L 3.4471456,9.8442522 c 0,0 -1.2263884,0.2099228 -1.6683301,0.07734 -0.4419417,-0.1325825 1.3368738,2.6406018 3.4913397,2.1765628 2.154466,-0.464039 -0.143631,-1.082757 -0.143631,-1.082757 l -0.066291,1.027514 c 0,0 -1.4915534,1.093806 -2.2539029,1.226389 -0.7623495,0.132582 -2.48592224,0.397747 -2.78423291,0.265165 -0.29831068,-0.132583 3.93328151,2.264951 7.02687361,1.281631 3.093592,-0.983321 3.734407,-1.690427 4.607242,-2.541165 0.872835,-0.850738 2.375437,-3.5907767 2.530117,-4.7177281 0.154679,-1.1269514 0.220971,-2.154466 0.220971,-2.154466 L 10.915961,5.3143499 8.8388351,5.966214 Z"
     id="path8" />
</svg>
